# xmcd
#
# Track frame offsets: 
#        150
#        14418
#        29045
#        44351
#        59046
#        74604
#        88006
#
# Disc length: 1406 seconds
#
# Revision: 0
# Processed by: cddbd v1.5.2PL0 Copyright (c) Steve Scherf et al.
# Submitted via: ExactAudioCopy v0.95b3
#
DISCID=67057c07
DTITLE=Chase Rice - Ready Set Roll
DYEAR=2014
DGENRE=Country
TTITLE0=Ready Set Roll
TTITLE1=Party Up (Featuring Colt Ford)
TTITLE2=Country In Ya
TTITLE3=Look At My Truck
TTITLE4=Best Beers Of Our Lives
TTITLE5=How She Rolls
TTITLE6=Jack Daniel's And Jesus (Piano Version)
EXTD=
EXTT0=
EXTT1=
EXTT2=
EXTT3=
EXTT4=
EXTT5=
EXTT6=
PLAYORDER=
